<?xml version="1.0" encoding="UTF-8"?>
<!DOCTYPE svg PUBLIC "-//W3C//DTD SVG 1.1//EN" "http://www.w3.org/Graphics/SVG/1.1/DTD/svg11.dtd">
<svg xmlns="http://www.w3.org/2000/svg" version="1.1" width="80px" height="80px" style="shape-rendering:geometricPrecision; text-rendering:geometricPrecision; image-rendering:optimizeQuality; fill-rule:evenodd; clip-rule:evenodd" xmlns:xlink="http://www.w3.org/1999/xlink">
<g><path style="opacity:0.969" fill="#e6dccd" d="M 30.5,-0.5 C 36.5,-0.5 42.5,-0.5 48.5,-0.5C 52.7863,0.928676 56.7863,2.92868 60.5,5.5C 57.8775,9.09031 54.8775,9.42364 51.5,6.5C 49.9472,3.74597 47.6139,2.91264 44.5,4C 43.1772,4.81595 42.5106,5.98261 42.5,7.5C 39.7699,12.734 38.1033,18.4007 37.5,24.5C 36.8165,24.1373 36.1499,23.8039 35.5,23.5C 35.6646,20.4816 35.498,17.4816 35,14.5C 33.8147,16.3772 32.8147,18.3772 32,20.5C 31.7978,18.7444 31.2978,17.0777 30.5,15.5C 29.8133,17.2744 28.9799,18.9411 28,20.5C 27.8249,17.0501 27.6582,13.7168 27.5,10.5C 26.9986,12.6551 25.9986,14.3218 24.5,15.5C 24.5,15.1667 24.5,14.8333 24.5,14.5C 26.0024,12.1707 25.3357,10.8373 22.5,10.5C 20.7116,9.37753 18.7116,9.21086 16.5,10C 14.5743,10.4224 13.5743,11.5891 13.5,13.5C 13.6716,14.4916 13.3382,15.1583 12.5,15.5C 10.8333,15.5 9.16667,15.5 7.5,15.5C 8.90614,12.5865 10.9061,10.0865 13.5,8C 18.7308,4.10231 24.3975,1.26898 30.5,-0.5 Z"/></g>
<g><path style="opacity:1" fill="#b97848" d="M 50.5,6.5 C 50.0571,9.62378 48.3905,11.9571 45.5,13.5C 44.5258,11.2573 44.1924,8.92397 44.5,6.5C 46.5487,5.35858 48.5487,5.35858 50.5,6.5 Z"/></g>
<g><path style="opacity:1" fill="#f1b336" d="M 22.5,10.5 C 20.5853,10.2155 18.9187,10.5489 17.5,11.5C 15.9382,11.7329 14.6049,12.3995 13.5,13.5C 13.5743,11.5891 14.5743,10.4224 16.5,10C 18.7116,9.21086 20.7116,9.37753 22.5,10.5 Z"/></g>
<g><path style="opacity:1" fill="#f3ca6e" d="M 17.5,11.5 C 18.9187,10.5489 20.5853,10.2155 22.5,10.5C 25.3357,10.8373 26.0024,12.1707 24.5,14.5C 24.1667,14.5 23.8333,14.5 23.5,14.5C 22.3933,12.0311 20.3933,11.0311 17.5,11.5 Z"/></g>
<g><path style="opacity:1" fill="#f4ab20" d="M 17.5,11.5 C 20.3933,11.0311 22.3933,12.0311 23.5,14.5C 20.4954,15.6646 18.4954,14.6646 17.5,11.5 Z"/></g>
<g><path style="opacity:1" fill="#fbf8e4" d="M 42.5,7.5 C 41.7051,11.7853 41.3718,16.1186 41.5,20.5C 40.5,23.1667 39.5,25.8333 38.5,28.5C 38.1788,26.9519 37.1788,26.2852 35.5,26.5C 35.5,25.5 35.5,24.5 35.5,23.5C 36.1499,23.8039 36.8165,24.1373 37.5,24.5C 38.1033,18.4007 39.7699,12.734 42.5,7.5 Z"/></g>
<g><path style="opacity:1" fill="#c8915e" d="M 62.5,6.5 C 65.4323,7.79973 67.7656,9.79973 69.5,12.5C 66.0917,14.164 62.7584,15.8307 59.5,17.5C 58.8333,17.5 58.5,17.8333 58.5,18.5C 57.5,18.5 56.5,18.5 55.5,18.5C 55.5,16.8333 55.5,15.1667 55.5,13.5C 57.8056,13.0074 60.139,12.6741 62.5,12.5C 62.0461,10.2589 62.0461,8.2589 62.5,6.5 Z"/></g>
<g><path style="opacity:1" fill="#f7e2b7" d="M 51.5,6.5 C 51.1667,6.5 50.8333,6.5 50.5,6.5C 48.5487,5.35858 46.5487,5.35858 44.5,6.5C 43.5166,10.2984 43.1832,14.2984 43.5,18.5C 43.1667,19.5 42.5,20.1667 41.5,20.5C 41.3718,16.1186 41.7051,11.7853 42.5,7.5C 42.5106,5.98261 43.1772,4.81595 44.5,4C 47.6139,2.91264 49.9472,3.74597 51.5,6.5 Z"/></g>
<g><path style="opacity:1" fill="#dee0de" d="M 17.5,11.5 C 18.4954,14.6646 20.4954,15.6646 23.5,14.5C 23.8333,14.5 24.1667,14.5 24.5,14.5C 24.5,14.8333 24.5,15.1667 24.5,15.5C 22.6885,17.3854 21.5218,19.7187 21,22.5C 20.2797,20.8876 20.4464,19.3876 21.5,18C 20.354,17.3551 19.354,16.5217 18.5,15.5C 17.4512,18.0795 16.7845,20.7462 16.5,23.5C 17.2216,23.0825 17.7216,22.4158 18,21.5C 19.9705,23.6684 22.1371,24.0017 24.5,22.5C 27.4243,21.6081 30.2576,21.2747 33,21.5C 33.1667,21.8333 33.3333,22.1667 33.5,22.5C 32.086,23.624 30.586,24.624 29,25.5C 28.51,26.7932 28.3433,28.1266 28.5,29.5C 32.7272,29.601 35.0605,27.601 35.5,23.5C 35.5,24.5 35.5,25.5 35.5,26.5C 34.3633,30.9804 31.6966,32.3138 27.5,30.5C 27.5,28.8333 27.5,27.1667 27.5,25.5C 25.139,25.6741 22.8056,26.0074 20.5,26.5C 20.44,25.9569 20.1067,25.6236 19.5,25.5C 17.9745,25.9943 16.6412,26.661 15.5,27.5C 13.7839,27.6287 12.1172,27.962 10.5,28.5C 11.8148,27.333 12.4814,25.833 12.5,24C 11.6174,21.217 11.6174,18.3837 12.5,15.5C 13.3382,15.1583 13.6716,14.4916 13.5,13.5C 14.6049,12.3995 15.9382,11.7329 17.5,11.5 Z"/></g>
<g><path style="opacity:1" fill="#393939" d="M 15.5,13.5 C 16.7759,14.3864 16.7759,15.3864 15.5,16.5C 14.4376,15.5754 14.4376,14.5754 15.5,13.5 Z"/></g>
<g><path style="opacity:1" fill="#efc087" d="M 60.5,5.5 C 61.4916,5.32842 62.1583,5.66175 62.5,6.5C 62.0461,8.2589 62.0461,10.2589 62.5,12.5C 60.139,12.6741 57.8056,13.0074 55.5,13.5C 55.5,15.1667 55.5,16.8333 55.5,18.5C 54.8333,19.1667 54.1667,19.8333 53.5,20.5C 53.5,19.8333 53.5,19.1667 53.5,18.5C 53.0377,17.1201 52.0377,16.4534 50.5,16.5C 48.0871,17.0187 45.7537,17.6853 43.5,18.5C 43.1832,14.2984 43.5166,10.2984 44.5,6.5C 44.1924,8.92397 44.5258,11.2573 45.5,13.5C 48.3905,11.9571 50.0571,9.62378 50.5,6.5C 50.8333,6.5 51.1667,6.5 51.5,6.5C 54.8775,9.42364 57.8775,9.09031 60.5,5.5 Z"/></g>
<g><path style="opacity:1" fill="#dca266" d="M 53.5,18.5 C 51.8212,18.2852 50.8212,18.9519 50.5,20.5C 46.4743,20.6766 43.641,22.6766 42,26.5C 41.5045,24.5273 41.3379,22.5273 41.5,20.5C 42.5,20.1667 43.1667,19.5 43.5,18.5C 45.7537,17.6853 48.0871,17.0187 50.5,16.5C 52.0377,16.4534 53.0377,17.1201 53.5,18.5 Z"/></g>
<g><path style="opacity:1" fill="#1a1512" d="M 59.5,17.5 C 60.5,17.5 61.5,17.5 62.5,17.5C 62.5,18.5 62.5,19.5 62.5,20.5C 61.1667,20.5 59.8333,20.5 58.5,20.5C 58.5,19.8333 58.5,19.1667 58.5,18.5C 58.5,17.8333 58.8333,17.5 59.5,17.5 Z"/></g>
<g><path style="opacity:1" fill="#865329" d="M 69.5,12.5 C 70.9744,13.4363 71.9744,14.7697 72.5,16.5C 72.5,18.1667 72.5,19.8333 72.5,21.5C 72.6655,25.5138 72.4988,29.5138 72,33.5C 71.1827,29.1576 69.6827,25.1576 67.5,21.5C 66.2524,19.31 64.5857,18.9766 62.5,20.5C 62.5,19.5 62.5,18.5 62.5,17.5C 61.5,17.5 60.5,17.5 59.5,17.5C 62.7584,15.8307 66.0917,14.164 69.5,12.5 Z"/></g>
<g><path style="opacity:1" fill="#322e2c" d="M 53.5,18.5 C 53.5,19.1667 53.5,19.8333 53.5,20.5C 52.5,21.8333 51.5,21.8333 50.5,20.5C 50.8212,18.9519 51.8212,18.2852 53.5,18.5 Z"/></g>
<g><path style="opacity:1" fill="#af9373" d="M 67.5,21.5 C 67.5,22.8333 67.5,24.1667 67.5,25.5C 65.5165,25.6168 63.8498,24.9501 62.5,23.5C 60.7807,24.7887 59.4474,24.4554 58.5,22.5C 57.791,21.596 56.791,21.2627 55.5,21.5C 56.209,20.596 57.209,20.2627 58.5,20.5C 59.8333,20.5 61.1667,20.5 62.5,20.5C 64.5857,18.9766 66.2524,19.31 67.5,21.5 Z"/></g>
<g><path style="opacity:1" fill="#3c3c3c" d="M 7.5,15.5 C 9.16667,15.5 10.8333,15.5 12.5,15.5C 11.6174,18.3837 11.6174,21.217 12.5,24C 12.4814,25.833 11.8148,27.333 10.5,28.5C 9.50838,28.3284 8.84171,28.6618 8.5,29.5C 6.89674,29.6882 5.56341,29.1882 4.5,28C 5.21132,25.2037 5.87799,22.3704 6.5,19.5C 6.37642,18.8933 6.04309,18.56 5.5,18.5C 5.42702,16.9731 6.09368,15.9731 7.5,15.5 Z"/></g>
<g><path style="opacity:1" fill="#e9e9e9" d="M 8.5,16.5 C 10.9701,17.3603 11.1368,18.6936 9,20.5C 8.50999,19.2068 8.34332,17.8734 8.5,16.5 Z"/></g>
<g><path style="opacity:1" fill="#434343" d="M 16.5,23.5 C 15.9924,25.2327 15.159,25.566 14,24.5C 13.1487,21.947 13.482,19.6137 15,17.5C 15.1909,19.7078 15.6909,21.7078 16.5,23.5 Z"/></g>
<g><path style="opacity:1" fill="#3c3c3c" d="M 35.5,23.5 C 35.0605,27.601 32.7272,29.601 28.5,29.5C 28.3433,28.1266 28.51,26.7932 29,25.5C 30.586,24.624 32.086,23.624 33.5,22.5C 33.3333,22.1667 33.1667,21.8333 33,21.5C 30.2576,21.2747 27.4243,21.6081 24.5,22.5C 22.1371,24.0017 19.9705,23.6684 18,21.5C 17.7216,22.4158 17.2216,23.0825 16.5,23.5C 16.7845,20.7462 17.4512,18.0795 18.5,15.5C 19.354,16.5217 20.354,17.3551 21.5,18C 20.4464,19.3876 20.2797,20.8876 21,22.5C 21.5218,19.7187 22.6885,17.3854 24.5,15.5C 25.9986,14.3218 26.9986,12.6551 27.5,10.5C 27.6582,13.7168 27.8249,17.0501 28,20.5C 28.9799,18.9411 29.8133,17.2744 30.5,15.5C 31.2978,17.0777 31.7978,18.7444 32,20.5C 32.8147,18.3772 33.8147,16.3772 35,14.5C 35.498,17.4816 35.6646,20.4816 35.5,23.5 Z"/></g>
<g><path style="opacity:1" fill="#d4d4d4" d="M 24.5,22.5 C 23.156,20.8151 23.3227,19.1484 25,17.5C 25.3845,19.1966 25.2178,20.8632 24.5,22.5 Z"/></g>
<g><path style="opacity:1" fill="#faedcf" d="M 55.5,18.5 C 56.5,18.5 57.5,18.5 58.5,18.5C 58.5,19.1667 58.5,19.8333 58.5,20.5C 57.209,20.2627 56.209,20.596 55.5,21.5C 53.1147,22.9819 50.7813,24.6486 48.5,26.5C 50.4986,28.4935 51.9986,30.8268 53,33.5C 53.414,33.0426 53.914,32.7093 54.5,32.5C 56.0916,35.4464 55.2583,37.4464 52,38.5C 51.6667,37.8333 51.3333,37.1667 51,36.5C 49.4877,38.9574 48.1544,38.9574 47,36.5C 46.2828,37.0442 45.7828,37.7109 45.5,38.5C 40.9653,37.6388 38.632,34.9722 38.5,30.5C 38.5,29.8333 38.5,29.1667 38.5,28.5C 39.5,25.8333 40.5,23.1667 41.5,20.5C 41.3379,22.5273 41.5045,24.5273 42,26.5C 43.641,22.6766 46.4743,20.6766 50.5,20.5C 51.5,21.8333 52.5,21.8333 53.5,20.5C 54.1667,19.8333 54.8333,19.1667 55.5,18.5 Z"/></g>
<g><path style="opacity:1" fill="#cdccc9" d="M 7.5,22.5 C 8.83333,22.5 10.1667,22.5 11.5,22.5C 11.756,24.9124 10.756,26.5791 8.5,27.5C 7.54811,25.9547 7.21478,24.288 7.5,22.5 Z"/></g>
<g><path style="opacity:1" fill="#cfcfcf" d="M 30.5,25.5 C 33.0118,26.2162 33.0118,27.2162 30.5,28.5C 29.4376,27.5754 29.4376,26.5754 30.5,25.5 Z"/></g>
<g><path style="opacity:1" fill="#3d332b" d="M 55.5,21.5 C 56.791,21.2627 57.791,21.596 58.5,22.5C 58.33,23.8221 58.6634,24.9887 59.5,26C 58.552,26.4828 57.552,26.6495 56.5,26.5C 55.8333,26.5 55.5,26.1667 55.5,25.5C 55.5,24.1667 55.5,22.8333 55.5,21.5 Z"/></g>
<g><path style="opacity:1" fill="#82613e" d="M 67.5,21.5 C 69.6827,25.1576 71.1827,29.1576 72,33.5C 72.4988,29.5138 72.6655,25.5138 72.5,21.5C 74.1948,30.1095 73.1948,38.4428 69.5,46.5C 69.7989,44.396 69.4656,42.396 68.5,40.5C 67.8165,40.8627 67.1499,41.1961 66.5,41.5C 67.3242,38.2356 67.6576,34.9023 67.5,31.5C 65.5,31.5 63.5,31.5 61.5,31.5C 57.218,31.8929 55.5513,30.2262 56.5,26.5C 57.552,26.6495 58.552,26.4828 59.5,26C 58.6634,24.9887 58.33,23.8221 58.5,22.5C 59.4474,24.4554 60.7807,24.7887 62.5,23.5C 63.8498,24.9501 65.5165,25.6168 67.5,25.5C 67.5,24.1667 67.5,22.8333 67.5,21.5 Z"/></g>
<g><path style="opacity:1" fill="#abd9ab" d="M 20.5,26.5 C 19.2617,26.81 19.2617,27.31 20.5,28C 18.8455,28.6077 17.1789,29.1077 15.5,29.5C 15.5,28.8333 15.5,28.1667 15.5,27.5C 16.6412,26.661 17.9745,25.9943 19.5,25.5C 20.1067,25.6236 20.44,25.9569 20.5,26.5 Z"/></g>
<g><path style="opacity:1" fill="#f9f0dd" d="M 27.5,30.5 C 27.7678,32.099 27.4345,33.4324 26.5,34.5C 24.5742,35.2423 22.7409,36.2423 21,37.5C 20.1751,47.6753 20.3417,57.6753 21.5,67.5C 21.44,68.0431 21.1067,68.3764 20.5,68.5C 19.5258,66.2573 19.1924,63.924 19.5,61.5C 19.5,61.1667 19.5,60.8333 19.5,60.5C 18.077,55.2839 17.2437,49.9506 17,44.5C 16.6824,42.9391 15.8491,41.7724 14.5,41C 15.713,38.3135 16.3797,35.4802 16.5,32.5C 17.525,32.1034 17.6917,31.4368 17,30.5C 15.6703,31.5822 14.1703,32.2488 12.5,32.5C 13.3065,31.2719 14.3065,30.2719 15.5,29.5C 17.1789,29.1077 18.8455,28.6077 20.5,28C 19.2617,27.31 19.2617,26.81 20.5,26.5C 22.8056,26.0074 25.139,25.6741 27.5,25.5C 27.5,27.1667 27.5,28.8333 27.5,30.5 Z"/></g>
<g><path style="opacity:0.956" fill="#c8bcab" d="M 4.5,20.5 C 4.83798,23.1569 4.17131,25.4902 2.5,27.5C 3.31277,28.8139 4.31277,29.9805 5.5,31C 4.14419,33.274 4.64419,35.1073 7,36.5C 8.30105,36.3613 9.13438,35.6946 9.5,34.5C 11.0269,34.573 12.0269,33.9063 12.5,32.5C 14.1703,32.2488 15.6703,31.5822 17,30.5C 17.6917,31.4368 17.525,32.1034 16.5,32.5C 13.3832,33.782 11.0499,35.9487 9.5,39C 7.34348,39.0781 5.34348,39.2448 3.5,39.5C 7.04383,44.7545 10.7105,49.9212 14.5,55C 10.5,55.6667 10.5,56.3333 14.5,57C 13.5,57.3333 12.5,57.6667 11.5,58C 13.7693,60.0229 16.4359,60.8563 19.5,60.5C 19.5,60.8333 19.5,61.1667 19.5,61.5C 14.8333,61.5 10.1667,61.5 5.5,61.5C 3.10218,57.2864 1.10218,52.9531 -0.5,48.5C -0.5,42.5 -0.5,36.5 -0.5,30.5C 0.634259,26.8981 2.30093,23.5648 4.5,20.5 Z"/></g>
<g><path style="opacity:1" fill="#ebc7b7" d="M 15.5,27.5 C 15.5,28.1667 15.5,28.8333 15.5,29.5C 14.3065,30.2719 13.3065,31.2719 12.5,32.5C 12.0269,33.9063 11.0269,34.573 9.5,34.5C 8.47113,33.8743 7.47113,33.041 6.5,32C 7.38053,31.2917 8.0472,30.4584 8.5,29.5C 8.84171,28.6618 9.50838,28.3284 10.5,28.5C 12.1172,27.962 13.7839,27.6287 15.5,27.5 Z"/></g>
<g><path style="opacity:1" fill="#ebe5e2" d="M 5.5,18.5 C 6.04309,18.56 6.37642,18.8933 6.5,19.5C 5.87799,22.3704 5.21132,25.2037 4.5,28C 5.56341,29.1882 6.89674,29.6882 8.5,29.5C 8.0472,30.4584 7.38053,31.2917 6.5,32C 7.47113,33.041 8.47113,33.8743 9.5,34.5C 9.13438,35.6946 8.30105,36.3613 7,36.5C 4.64419,35.1073 4.14419,33.274 5.5,31C 4.31277,29.9805 3.31277,28.8139 2.5,27.5C 4.17131,25.4902 4.83798,23.1569 4.5,20.5C 4.32842,19.5084 4.66175,18.8417 5.5,18.5 Z"/></g>
<g><path style="opacity:0.988" fill="#e4d8c8" d="M 72.5,16.5 C 75.5966,20.7929 77.9299,25.4595 79.5,30.5C 79.5,36.5 79.5,42.5 79.5,48.5C 77.8978,52.9531 75.8978,57.2864 73.5,61.5C 69.2984,61.8168 65.2984,61.4834 61.5,60.5C 64.5713,56.0879 67.238,51.4212 69.5,46.5C 73.1948,38.4428 74.1948,30.1095 72.5,21.5C 72.5,19.8333 72.5,18.1667 72.5,16.5 Z"/></g>
<g><path style="opacity:1" fill="#bf7237" d="M 38.5,32.5 C 38.5,33.1667 38.5,33.8333 38.5,34.5C 35.328,36.2519 32.328,38.2519 29.5,40.5C 30.4706,38.5168 31.4706,36.5168 32.5,34.5C 33.8026,31.6213 35.8026,30.9546 38.5,32.5 Z"/></g>
<g><path style="opacity:1" fill="#dbcfbf" d="M 16.5,32.5 C 16.3797,35.4802 15.713,38.3135 14.5,41C 15.8491,41.7724 16.6824,42.9391 17,44.5C 17.2437,49.9506 18.077,55.2839 19.5,60.5C 16.4359,60.8563 13.7693,60.0229 11.5,58C 12.5,57.6667 13.5,57.3333 14.5,57C 10.5,56.3333 10.5,55.6667 14.5,55C 10.7105,49.9212 7.04383,44.7545 3.5,39.5C 5.34348,39.2448 7.34348,39.0781 9.5,39C 11.0499,35.9487 13.3832,33.782 16.5,32.5 Z"/></g>
<g><path style="opacity:1" fill="#d7bc9d" d="M 56.5,32.5 C 63.9175,32.5985 65.2509,35.4318 60.5,41C 57.659,39.9884 56.3256,41.1551 56.5,44.5C 55.0222,44.238 53.6888,44.5713 52.5,45.5C 55.1605,48.509 55.1605,51.509 52.5,54.5C 52.1667,54.5 51.8333,54.5 51.5,54.5C 50.8333,50.5 50.1667,46.5 49.5,42.5C 51.8144,41.318 54.1477,39.9847 56.5,38.5C 58.297,37.3049 59.297,35.6382 59.5,33.5C 58.209,33.7373 57.209,33.404 56.5,32.5 Z"/></g>
<g><path style="opacity:1" fill="#975828" d="M 32.5,34.5 C 31.4706,36.5168 30.4706,38.5168 29.5,40.5C 29.1667,41.8333 28.8333,43.1667 28.5,44.5C 27.7777,45.5511 26.7777,46.2178 25.5,46.5C 25.3354,43.4816 25.502,40.4816 26,37.5C 27.8425,35.8288 30.0092,34.8288 32.5,34.5 Z"/></g>
<g><path style="opacity:1" fill="#e7ab6f" d="M 38.5,34.5 C 36.1581,40.9674 37.4914,46.3007 42.5,50.5C 42.5,52.1667 42.5,53.8333 42.5,55.5C 41.631,53.1169 40.131,51.1169 38,49.5C 32.6412,51.8676 29.4746,50.2009 28.5,44.5C 28.8333,43.1667 29.1667,41.8333 29.5,40.5C 32.328,38.2519 35.328,36.2519 38.5,34.5 Z"/></g>
<g><path style="opacity:1" fill="#9e774f" d="M 61.5,31.5 C 63.5,31.5 65.5,31.5 67.5,31.5C 67.6576,34.9023 67.3242,38.2356 66.5,41.5C 61.9825,43.648 59.6492,47.3146 59.5,52.5C 57.2188,54.5529 54.7188,56.2195 52,57.5C 51.6432,61.5104 51.8099,65.5104 52.5,69.5C 48.6113,64.4378 48.6113,59.4378 52.5,54.5C 57.9414,53.5222 59.9414,50.1888 58.5,44.5C 59.8221,44.67 60.9887,44.3366 62,43.5C 62.5133,40.5058 63.68,37.8391 65.5,35.5C 65.3333,34.8333 65.1667,34.1667 65,33.5C 63.6976,32.9152 62.531,32.2485 61.5,31.5 Z"/></g>
<g><path style="opacity:1" fill="#f5cc9c" d="M 38.5,30.5 C 38.632,34.9722 40.9653,37.6388 45.5,38.5C 46.2344,39.8775 46.9011,41.3775 47.5,43C 44.758,44.8864 43.0913,47.3864 42.5,50.5C 37.4914,46.3007 36.1581,40.9674 38.5,34.5C 38.5,33.8333 38.5,33.1667 38.5,32.5C 38.5,31.8333 38.5,31.1667 38.5,30.5 Z"/></g>
<g><path style="opacity:1" fill="#b99873" d="M 55.5,25.5 C 55.5,26.1667 55.8333,26.5 56.5,26.5C 55.5513,30.2262 57.218,31.8929 61.5,31.5C 62.531,32.2485 63.6976,32.9152 65,33.5C 65.1667,34.1667 65.3333,34.8333 65.5,35.5C 63.68,37.8391 62.5133,40.5058 62,43.5C 60.9887,44.3366 59.8221,44.67 58.5,44.5C 59.9414,50.1888 57.9414,53.5222 52.5,54.5C 55.1605,51.509 55.1605,48.509 52.5,45.5C 53.6888,44.5713 55.0222,44.238 56.5,44.5C 56.3256,41.1551 57.659,39.9884 60.5,41C 65.2509,35.4318 63.9175,32.5985 56.5,32.5C 54.6224,30.7146 52.9558,28.7146 51.5,26.5C 52.6888,25.5713 54.0222,25.238 55.5,25.5 Z"/></g>
<g><path style="opacity:1" fill="#7c5530" d="M 69.5,46.5 C 67.238,51.4212 64.5713,56.0879 61.5,60.5C 61.1667,60.5 60.8333,60.5 60.5,60.5C 60.7852,58.712 60.4519,57.0453 59.5,55.5C 58.5791,57.756 56.9124,58.756 54.5,58.5C 54.1725,63.544 54.5059,68.544 55.5,73.5C 54.9053,70.9339 55.572,68.6006 57.5,66.5C 57.281,67.675 57.6143,68.675 58.5,69.5C 60.9606,70.232 63.2939,70.5653 65.5,70.5C 62.7089,72.7349 59.7089,74.7349 56.5,76.5C 55.713,74.8958 54.3797,74.2291 52.5,74.5C 52.5,72.8333 52.5,71.1667 52.5,69.5C 51.8099,65.5104 51.6432,61.5104 52,57.5C 54.7188,56.2195 57.2188,54.5529 59.5,52.5C 59.6492,47.3146 61.9825,43.648 66.5,41.5C 67.1499,41.1961 67.8165,40.8627 68.5,40.5C 69.4656,42.396 69.7989,44.396 69.5,46.5 Z"/></g>
<g><path style="opacity:1" fill="#b68451" d="M 28.5,44.5 C 29.4746,50.2009 32.6412,51.8676 38,49.5C 40.131,51.1169 41.631,53.1169 42.5,55.5C 42.6716,56.4916 42.3382,57.1583 41.5,57.5C 39.2795,56.021 36.9462,54.6877 34.5,53.5C 32.9652,52.2121 31.2985,52.2121 29.5,53.5C 26.398,55.595 24.0647,58.2616 22.5,61.5C 22.6036,59.2972 23.2702,57.2972 24.5,55.5C 25.4767,52.7131 25.81,49.7131 25.5,46.5C 26.7777,46.2178 27.7777,45.5511 28.5,44.5 Z"/></g>
<g><path style="opacity:1" fill="#be966d" d="M 35.5,26.5 C 37.1788,26.2852 38.1788,26.9519 38.5,28.5C 38.5,29.1667 38.5,29.8333 38.5,30.5C 38.5,31.1667 38.5,31.8333 38.5,32.5C 35.8026,30.9546 33.8026,31.6213 32.5,34.5C 30.0092,34.8288 27.8425,35.8288 26,37.5C 25.502,40.4816 25.3354,43.4816 25.5,46.5C 25.81,49.7131 25.4767,52.7131 24.5,55.5C 24.5,49.8333 24.5,44.1667 24.5,38.5C 24.7329,36.9382 25.3995,35.6049 26.5,34.5C 27.4345,33.4324 27.7678,32.099 27.5,30.5C 31.6966,32.3138 34.3633,30.9804 35.5,26.5 Z"/></g>
<g><path style="opacity:1" fill="#f0d6b4" d="M 55.5,21.5 C 55.5,22.8333 55.5,24.1667 55.5,25.5C 54.0222,25.238 52.6888,25.5713 51.5,26.5C 52.9558,28.7146 54.6224,30.7146 56.5,32.5C 57.209,33.404 58.209,33.7373 59.5,33.5C 59.297,35.6382 58.297,37.3049 56.5,38.5C 54.1477,39.9847 51.8144,41.318 49.5,42.5C 50.1667,46.5 50.8333,50.5 51.5,54.5C 49.9582,55.3007 48.2915,55.634 46.5,55.5C 46.0046,62.7568 48.0046,69.0901 52.5,74.5C 54.3797,74.2291 55.713,74.8958 56.5,76.5C 54.7162,76.8925 53.0495,77.5592 51.5,78.5C 50.828,77.7326 49.9947,77.0659 49,76.5C 48.7599,74.1484 47.9265,72.1484 46.5,70.5C 46.4431,69.391 46.1098,68.391 45.5,67.5C 44.8132,62.8091 42.1465,60.8091 37.5,61.5C 38.326,59.7356 39.6593,58.4023 41.5,57.5C 42.3382,57.1583 42.6716,56.4916 42.5,55.5C 42.5,53.8333 42.5,52.1667 42.5,50.5C 43.0913,47.3864 44.758,44.8864 47.5,43C 46.9011,41.3775 46.2344,39.8775 45.5,38.5C 45.7828,37.7109 46.2828,37.0442 47,36.5C 48.1544,38.9574 49.4877,38.9574 51,36.5C 51.3333,37.1667 51.6667,37.8333 52,38.5C 55.2583,37.4464 56.0916,35.4464 54.5,32.5C 53.914,32.7093 53.414,33.0426 53,33.5C 51.9986,30.8268 50.4986,28.4935 48.5,26.5C 50.7813,24.6486 53.1147,22.9819 55.5,21.5 Z"/></g>
<g><path style="opacity:1" fill="#eed3ad" d="M 26.5,34.5 C 25.3995,35.6049 24.7329,36.9382 24.5,38.5C 22.2649,39.2858 21.2649,40.9524 21.5,43.5C 22.4118,51.4849 22.4118,59.4849 21.5,67.5C 20.3417,57.6753 20.1751,47.6753 21,37.5C 22.7409,36.2423 24.5742,35.2423 26.5,34.5 Z"/></g>
<g><path style="opacity:1" fill="#805933" d="M 34.5,53.5 C 33.0222,53.238 31.6888,53.5713 30.5,54.5C 31.325,55.3857 32.325,55.719 33.5,55.5C 33.3359,58.1873 33.5026,60.854 34,63.5C 34.2355,65.1193 35.0689,66.1193 36.5,66.5C 39.3915,67.4025 42.3915,67.7359 45.5,67.5C 46.1098,68.391 46.4431,69.391 46.5,70.5C 46.1667,74.5 45.8333,74.5 45.5,70.5C 41.1667,70.5 36.8333,70.5 32.5,70.5C 33.7175,69.8386 35.0508,69.1719 36.5,68.5C 35.3112,67.5713 33.9778,67.238 32.5,67.5C 32.112,64.1212 31.4453,60.7879 30.5,57.5C 25.5715,59.0918 23.5715,62.4252 24.5,67.5C 26.924,67.1924 29.2573,67.5258 31.5,68.5C 31.0057,70.0255 30.339,71.3588 29.5,72.5C 29.5,71.5 29.5,70.5 29.5,69.5C 27.1432,69.6633 24.8098,69.4966 22.5,69C 22.8916,66.6457 22.8916,64.1457 22.5,61.5C 24.0647,58.2616 26.398,55.595 29.5,53.5C 31.2985,52.2121 32.9652,52.2121 34.5,53.5 Z"/></g>
<g><path style="opacity:1" fill="#633c1b" d="M 34.5,53.5 C 36.9462,54.6877 39.2795,56.021 41.5,57.5C 39.6593,58.4023 38.326,59.7356 37.5,61.5C 36.5489,62.9187 36.2155,64.5853 36.5,66.5C 35.0689,66.1193 34.2355,65.1193 34,63.5C 33.5026,60.854 33.3359,58.1873 33.5,55.5C 32.325,55.719 31.325,55.3857 30.5,54.5C 31.6888,53.5713 33.0222,53.238 34.5,53.5 Z"/></g>
<g><path style="opacity:1" fill="#ddb582" d="M 51.5,54.5 C 51.8333,54.5 52.1667,54.5 52.5,54.5C 48.6113,59.4378 48.6113,64.4378 52.5,69.5C 52.5,71.1667 52.5,72.8333 52.5,74.5C 48.0046,69.0901 46.0046,62.7568 46.5,55.5C 48.2915,55.634 49.9582,55.3007 51.5,54.5 Z"/></g>
<g><path style="opacity:1" fill="#643b18" d="M 60.5,60.5 C 59.5592,62.0495 58.8925,63.7162 58.5,65.5C 57.8333,65.5 57.5,65.8333 57.5,66.5C 55.572,68.6006 54.9053,70.9339 55.5,73.5C 54.5059,68.544 54.1725,63.544 54.5,58.5C 56.9124,58.756 58.5791,57.756 59.5,55.5C 60.4519,57.0453 60.7852,58.712 60.5,60.5 Z"/></g>
<g><path style="opacity:1" fill="#ddb078" d="M 37.5,61.5 C 42.1465,60.8091 44.8132,62.8091 45.5,67.5C 42.3915,67.7359 39.3915,67.4025 36.5,66.5C 36.2155,64.5853 36.5489,62.9187 37.5,61.5 Z"/></g>
<g><path style="opacity:1" fill="#ddb582" d="M 60.5,60.5 C 60.8333,60.5 61.1667,60.5 61.5,60.5C 65.2984,61.4834 69.2984,61.8168 73.5,61.5C 71.823,63.5398 70.1563,65.5398 68.5,67.5C 65.501,67.1669 62.6676,67.1669 60,67.5C 58.9701,67.1639 58.4701,66.4972 58.5,65.5C 58.8925,63.7162 59.5592,62.0495 60.5,60.5 Z"/></g>
<g><path style="opacity:1" fill="#dcb586" d="M 32.5,70.5 C 31.7517,72.5841 31.7517,74.5841 32.5,76.5C 31.675,77.3857 30.675,77.719 29.5,77.5C 29.5,75.8333 29.5,74.1667 29.5,72.5C 30.339,71.3588 31.0057,70.0255 31.5,68.5C 29.2573,67.5258 26.924,67.1924 24.5,67.5C 23.5715,62.4252 25.5715,59.0918 30.5,57.5C 31.4453,60.7879 32.112,64.1212 32.5,67.5C 33.9778,67.238 35.3112,67.5713 36.5,68.5C 35.0508,69.1719 33.7175,69.8386 32.5,70.5 Z"/></g>
<g><path style="opacity:1" fill="#9f764d" d="M 58.5,65.5 C 58.4701,66.4972 58.9701,67.1639 60,67.5C 62.6676,67.1669 65.501,67.1669 68.5,67.5C 67.8333,68.8333 66.8333,69.8333 65.5,70.5C 63.2939,70.5653 60.9606,70.232 58.5,69.5C 57.6143,68.675 57.281,67.675 57.5,66.5C 57.5,65.8333 57.8333,65.5 58.5,65.5 Z"/></g>
<g><path style="opacity:1" fill="#d9ad7b" d="M 24.5,38.5 C 24.5,44.1667 24.5,49.8333 24.5,55.5C 23.2702,57.2972 22.6036,59.2972 22.5,61.5C 22.8916,64.1457 22.8916,66.6457 22.5,69C 24.8098,69.4966 27.1432,69.6633 29.5,69.5C 29.5,70.5 29.5,71.5 29.5,72.5C 28.2616,74.2143 27.595,76.2143 27.5,78.5C 18.4025,75.0636 11.0692,69.397 5.5,61.5C 10.1667,61.5 14.8333,61.5 19.5,61.5C 19.1924,63.924 19.5258,66.2573 20.5,68.5C 21.1067,68.3764 21.44,68.0431 21.5,67.5C 22.4118,59.4849 22.4118,51.4849 21.5,43.5C 21.2649,40.9524 22.2649,39.2858 24.5,38.5 Z"/></g>
<g><path style="opacity:1" fill="#ca965b" d="M 32.5,70.5 C 36.8333,70.5 41.1667,70.5 45.5,70.5C 45.8333,74.5 46.1667,74.5 46.5,70.5C 47.9265,72.1484 48.7599,74.1484 49,76.5C 49.9947,77.0659 50.828,77.7326 51.5,78.5C 50.209,78.2627 49.209,78.596 48.5,79.5C 42.5,79.5 36.5,79.5 30.5,79.5C 29.791,78.596 28.791,78.2627 27.5,78.5C 27.595,76.2143 28.2616,74.2143 29.5,72.5C 29.5,74.1667 29.5,75.8333 29.5,77.5C 30.675,77.719 31.675,77.3857 32.5,76.5C 31.7517,74.5841 31.7517,72.5841 32.5,70.5 Z"/></g>
</svg>
